<svg xmlns="http://www.w3.org/2000/svg" xmlns:xlink="http://www.w3.org/1999/xlink" viewBox="0 0 1200 1200"><defs><style>.cls-1{isolation:isolate;}.cls-2{fill:#ededf4;}.cls-3{fill:#55a0b5;}.cls-4{fill:#4796b2;}.cls-5{fill:#9ad9f5;}.cls-6{fill:#343332;}.cls-7{fill:none;}.cls-8{fill:#fcd05d;}.cls-9{fill:#e61c0d;}.cls-10{fill:#424140;}.cls-11{fill:#e9effa;}.cls-12{fill:#fff;opacity:0.55;mix-blend-mode:screen;}.cls-13{fill:#0c0c0c;}.cls-14{fill:#e3e2e0;}.cls-15{fill:#19677c;}.cls-16,.cls-18,.cls-19,.cls-20{fill:#89d3a8;}.cls-17{fill:#361d2a;}.cls-18{opacity:0.8;}.cls-19{opacity:0.5;}.cls-20{opacity:0.3;}.cls-21{mix-blend-mode:soft-light;fill:url(#linear-gradient);}</style><linearGradient id="linear-gradient" x1="600" y1="767.23" x2="600" y2="416.17" gradientUnits="userSpaceOnUse"><stop offset="0" stop-color="#d979d2"/><stop offset="1" stop-color="#50bf80"/></linearGradient></defs><g class="cls-1"><g id="Layer_1" data-name="Layer 1"><path class="cls-2" d="M135.38,789c-19.83-44-21.93-90.48,14.22-131.52,31.25-35.48,76.53-63,88.59-111.69,11.09-44.78-3-92.21-14.54-135.41-15.5-58-22.69-117.65,19.92-166.39,43.54-49.8,141.43-58.46,202.6-51.66C523.23,200.9,583.68,252.65,652.5,283c71.3,31.39,155.23,10.15,230.22,21.55,60.37,9.17,110.31,50.69,123.21,111.41,16.78,79-54.52,146-38.57,224.88,10,49.62,52.84,84.63,82.32,125.79,18.17,25.36,32,55.91,28.53,86.91-4,35.24-30.24,65-61.56,81.64S949.36,957.22,914,960.47c-96.6,8.87-195.55,3.11-290.14,28-95.09,25-191.83,34.3-284.29-7.9-74.25-33.88-139.17-88.37-184.47-156.34A247.45,247.45,0,0,1,135.38,789Z"/><rect class="cls-3" x="368.8" y="613.43" width="664.92" height="76.43"/><path class="cls-4" d="M364.65,609.27V694h673.22V609.27Zm669.07,80.58H368.8V613.43h664.92Z"/><rect class="cls-5" x="516.94" y="676.67" width="366.96" height="25.21"/><path class="cls-5" d="M1091.2,640.25v42h-64.91c-.21-1.88-.51-3.75-.86-5.6a72.85,72.85,0,0,0-143,0q-.56,2.77-.87,5.6H519.27q-.33-2.82-.87-5.6a72.85,72.85,0,0,0-143,0q-.54,2.77-.86,5.6h-45.3a23.9,23.9,0,0,1-5.6-5.29c-7.63-9.34-19.29-32.82-9.6-84.08,3.89-20.54,11.22-45.55,23.6-75.9,0,0,3-1.3,8.56-3.53,37.63-15,193.14-71.65,344.4-49.7,27.59,4,55.88,9.85,84,16.87h0c78.61,19.64,155.64,48.49,211.16,72,41.48,17.58,70.94,32.2,80.07,37.79a11.11,11.11,0,0,1,3,2.19c1.24,2.51,5.86,12.28,10.58,22.33C1085.2,627.4,1091.2,640.25,1091.2,640.25Z"/><rect class="cls-5" x="1028.12" y="676.67" width="63.08" height="5.6"/><path class="cls-5" d="M1095.33,686.42c0,.29,0,.57,0,.84l0,.34-.06.41c0,.27-.07.52-.12.78s-.11.51-.17.77-.12.49-.2.74-.11.38-.17.57-.23.65-.36,1a.14.14,0,0,0,0,.06h0a1.75,1.75,0,0,0-.11.24,2.92,2.92,0,0,1-.14.31,7.18,7.18,0,0,1-.34.68,5.12,5.12,0,0,1-.27.52c-.07.12-.14.26-.22.38a5.6,5.6,0,0,1-.3.48q-.18.29-.39.57t-.54.72c-.11.15-.24.3-.36.44s-.23.27-.35.39a6.14,6.14,0,0,1-.5.52,5.09,5.09,0,0,1-.41.4,2.09,2.09,0,0,1-.22.2l-.47.41-.09.07c-.13.11-.26.22-.4.32h0c-.24.18-.48.36-.74.53l-.07.06-.63.39c-.16.1-.31.19-.47.27s0,0-.08,0l-.12.08-.17.08-.06,0-.11.07-.31.16-.19.08-.35.16a1.94,1.94,0,0,1-.36.15l-.1.05c-.16.07-.32.12-.49.18a5.84,5.84,0,0,1-.59.2,5.26,5.26,0,0,1-.6.18,2.29,2.29,0,0,1-.28.08l-.26.07-.08,0-.14,0-.25,0-.24.05h-.06a5.4,5.4,0,0,1-.58.11l-.2,0h0c-.2,0-.41.06-.61.08l-.25,0a12.16,12.16,0,0,1-1.36.06h-51.13V686.42Z"/><path class="cls-4" d="M1095.33,686.42h0v-.64C1095.35,686,1095.34,686.21,1095.33,686.42Z"/><path class="cls-5" d="M375.42,676.67q-.54,2.77-.86,5.6h-45.3a23.9,23.9,0,0,1-5.6-5.29v-.31Z"/><path class="cls-5" d="M376.88,686.42v15.46l-53.22-14v-4.78a20.94,20.94,0,0,0,3.49,2.76l1,.57Z"/><path class="cls-6" d="M701.26,568.42H759.4a0,0,0,0,1,0,0v0a8.31,8.31,0,0,1-8.31,8.31H709.57a8.31,8.31,0,0,1-8.31-8.31v0a0,0,0,0,1,0,0Z"/><path class="cls-6" d="M412.86,568.42H471a0,0,0,0,1,0,0v0a8.31,8.31,0,0,1-8.31,8.31H421.17a8.31,8.31,0,0,1-8.31-8.31v0A0,0,0,0,1,412.86,568.42Z"/><line class="cls-7" x1="637.55" y1="458.36" x2="689.47" y2="673.08"/><path class="cls-4" d="M639.57,457.87l-2,.49-2,.49.05.2,1.77.05h.39l2.15.09Z"/><path class="cls-8" d="M335.08,537.6,318.3,596.09,313,598.71l-3.1,1.54-1.47.73c.25-1.67.52-3.38.82-5.09.22-1.24.44-2.5.68-3.76.08-.37.15-.75.22-1.13a365.06,365.06,0,0,1,14.56-51.86l.11-.29c.3-.74.6-1.5.9-2.26l0-.1c1.19-.49,2.77-1.14,4.7-1.91l.26.17,2.35,1.55Z"/><path class="cls-9" d="M326.48,614.16a8.25,8.25,0,0,1-8.22,8.23H307.52a9.08,9.08,0,0,1-1.17-.08h0c.09-2.06.21-4.15.38-6.27h0c.1-1.31.22-2.64.35-4q.3-3,.69-6.09h10.49A8.23,8.23,0,0,1,326.48,614.16Z"/><path class="cls-9" d="M324.69,634.25a8.23,8.23,0,0,1-8.23,8.23h-9.53q-.51-4.87-.65-10.14-.09-3.09,0-6.3h10.21A8.23,8.23,0,0,1,324.69,634.25Z"/><path class="cls-8" d="M1091,630.1a26.85,26.85,0,0,1-4.64-.11c-1.05-.1-2.21-.24-3.48-.43-19.18-2.85-40-12.83-43.52-20.17s-.83-18.3,6.54-20.57c4.27-1.33,14.21.49,23.58,5.32a52.1,52.1,0,0,1,6.48,3.94c2.61,5.51,5.82,12.34,7.12,15.12C1086,619.23,1088.83,625.38,1091,630.1Z"/><circle class="cls-10" cx="369.46" cy="546.08" r="18.51"/><path class="cls-4" d="M369.46,527.57A18.51,18.51,0,1,1,351,546.08a18.5,18.5,0,0,1,18.5-18.51m0-4.15a22.66,22.66,0,1,0,22.66,22.66,22.69,22.69,0,0,0-22.66-22.66Z"/><rect class="cls-4" x="395.13" y="527.57" width="2.04" height="37.01" rx="0.96"/><path class="cls-11" d="M442.1,482.68c-2.63,3.26-8.69,6.52-19.39,10.09-14.85,5-70.57,24.94-89,34.14-3.43,1.72-5.57,3.06-5.9,3.86q2.82-7.54,6-15.34l.05-.13.59-1.43,1.55-.68c.12-.05,3.11-1.36,8.69-3.58A815,815,0,0,1,443.63,478,6.13,6.13,0,0,1,442.1,482.68Z"/><path class="cls-11" d="M985.76,552.65c-4.92.12-9.88.19-13.83.19-12.32,0-197.34-72.2-197.34-72.2h0C853.21,500.28,930.24,529.13,985.76,552.65Z"/><path class="cls-11" d="M649.09,552.84H407.75s.56-45.85,56.64-61.14c23.35-6.36,57.7-10.77,92.13-13.21,8.73-.61,17.45-1.1,26-1.47,3.28-.14,6.52-.27,9.74-.36,4.3-.15,8.55-.25,12.7-.32,10.27-.17,20-.15,28.84.07Z"/><path class="cls-12" d="M582.52,477l-53.75,75.82H503.82l52.7-74.35C565.25,477.88,574,477.39,582.52,477Z"/><path class="cls-12" d="M605,476.34l-54.23,76.5H538.25l54-76.18C596.56,476.51,600.81,476.41,605,476.34Z"/><path class="cls-11" d="M936.17,552.84H672l-21.66-76.43c30-.34,58.61,1.33,85.35,6.37q10.95,2,21.48,4.89c2.64.71,5.27,1.47,7.87,2.27l.15,0q4.92,1.5,10.06,3.15C822.46,508.1,883.42,530.75,936.17,552.84Z"/><path class="cls-12" d="M757.19,487.67,711,552.84H686l49.67-70.06Q746.66,484.82,757.19,487.67Z"/><path class="cls-12" d="M775.27,493.13l-42.33,59.71H720.47l44.59-62.9.15,0Q770.13,491.48,775.27,493.13Z"/><path class="cls-4" d="M639.57,457.87l-2,.49-2,.49.05.2,1.77.05h.39l2.15.09Zm455.76,228.55h0v-.64C1095.35,686,1095.34,686.21,1095.33,686.42Z"/><path class="cls-4" d="M1095.35,672.52V639.33l-.39-.83-3.92-8.4c-2.21-4.72-5.08-10.87-7.92-16.9-1.3-2.78-4.51-9.61-7.12-15.12-1.55-3.25-2.89-6.05-3.5-7.3v0c-.61-1.19-1.7-2.12-4.47-3.83-13-7.92-66.4-33.85-137-60.73-61.41-23.37-152.85-53.89-239.77-66.51a507.6,507.6,0,0,0-72.56-5c-64.33,0-125.87,10.94-175,23.37a815,815,0,0,0-98.94,31.61c-5.58,2.22-8.57,3.53-8.69,3.58l-1.55.68-.59,1.43-.05.13q-3.17,7.8-6,15.34l0,0a1.69,1.69,0,0,1-.1.27c-1,2.62-1.92,5.22-2.83,7.78l-.11.29A365.06,365.06,0,0,0,310.19,591c-.07.38-.14.76-.22,1.13-.24,1.26-.46,2.52-.68,3.76-.3,1.71-.57,3.42-.82,5.09s-.49,3.33-.7,5q-.39,3.09-.69,6.09c-.13,1.35-.25,2.68-.35,4h0c-.17,2.12-.29,4.21-.38,6.27h0c-.05,1.25-.08,2.5-.1,3.73q-.06,3.21,0,6.3.14,5.26.65,10.14.51,4.66,1.36,9c2.64,13.36,7.38,21.9,11.21,26.95v12.66l3.1.81,53.22,14,5.22,1.37V672.52h-.39a68.71,68.71,0,0,1,132.52,0h-.38V706H888.06V672.52h-.38a68.7,68.7,0,0,1,133.67,5c.34,1.75.61,3.53.81,5.27l.43,3.68H1024V706h55.28a20.28,20.28,0,0,0,20.25-20.26V672.52ZM376.88,701.88l-53.22-14v-4.78a20.94,20.94,0,0,0,3.49,2.76l1,.57h48.75ZM323.66,677v-.31h51.76q-.54,2.77-.86,5.6h-45.3A23.9,23.9,0,0,1,323.66,677Zm560.24,24.9h-367V686.42h367ZM518.4,676.67H882.45q-.56,2.77-.87,5.6H519.27Q518.94,679.45,518.4,676.67Zm505.69-5.62c-.27-1-.56-1.94-.87-2.9l-.48-1.43q-.75-2.13-1.62-4.2-.55-1.34-1.17-2.64c-.22-.48-.45-1-.69-1.44s-.44-.89-.67-1.33c-.46-.88-.94-1.75-1.43-2.62l-.75-1.27c-.51-.85-1-1.68-1.57-2.51s-1.11-1.64-1.68-2.45c-.86-1.19-1.75-2.36-2.69-3.52-.24-.29-.48-.59-.73-.88-.55-.65-1.12-1.31-1.71-2-.25-.3-.53-.59-.8-.88l-.67-.71-1-1.05c-.36-.37-.74-.74-1.12-1.11l-1-.91-.07-.07-.92-.83c-.65-.59-1.33-1.17-2-1.73-.34-.29-.69-.57-1-.84-.54-.44-1.08-.87-1.65-1.29-.39-.3-.79-.59-1.19-.88a73.1,73.1,0,0,0-14.64-8.2l-1.28-.52c-.86-.33-1.72-.66-2.59-1-.27-.1-.53-.19-.8-.27l-1.08-.36-1.51-.46c-.46-.14-.92-.28-1.38-.39s-.73-.21-1.1-.3l-1.28-.32-1.27-.29c-.45-.1-.91-.2-1.36-.28-.3-.07-.61-.13-.91-.18-.7-.13-1.41-.25-2.11-.35-.5-.09-1-.16-1.51-.23l-1.62-.2-1.51-.15h-.14l-1.59-.13c-.54,0-1.09-.06-1.64-.09-1.1,0-2.19-.07-3.31-.07s-2.21,0-3.3.07c-.55,0-1.1.05-1.64.09l-1.59.13h-.14l-1.52.15-1.61.2c-.5.07-1,.14-1.51.23-.7.1-1.41.22-2.11.35-.31,0-.61.11-.91.18-.45.08-.91.18-1.36.28l-1.27.29-1.28.32c-.37.09-.74.19-1.1.3s-.92.25-1.38.39l-1.51.46-1.08.36c-.27.08-.53.17-.8.27-.87.3-1.74.63-2.59,1l-1.28.52a72.55,72.55,0,0,0-14.64,8.2c-.4.29-.8.58-1.19.88q-.84.63-1.65,1.29c-.35.27-.7.55-1,.84-.68.56-1.36,1.14-2,1.73l-.93.83-.06.07-1,.91c-1.17,1.13-2.31,2.31-3.4,3.5l-.72.79-.11.14-.88,1-.94,1.13a73.72,73.72,0,0,0-5.95,8.48l-.75,1.27c-.49.87-1,1.74-1.42,2.62s-.9,1.77-1.32,2.67-.83,1.82-1.22,2.74c-.57,1.38-1.11,2.78-1.61,4.2-.17.47-.32,1-.48,1.43-.31,1-.6,1.93-.87,2.9q-.21.74-.39,1.47H691.46l-14.29-59.09-1-4.16L639.89,459.2l-2.15-.09h-.39l-1.77-.05L671.9,609.27l1,4.16,14.29,59.09H517.45c-.12-.49-.26-1-.39-1.47-.27-1-.56-1.94-.87-2.9l-.48-1.43c-.5-1.42-1-2.82-1.61-4.2-.39-.92-.8-1.84-1.22-2.74s-.86-1.79-1.32-2.67-.94-1.75-1.43-2.62l-.74-1.27a75,75,0,0,0-5.95-8.48l-.94-1.13-.88-1-.12-.14-.71-.79c-1.09-1.19-2.23-2.37-3.4-3.5l-1-.91-.07-.07-.92-.83c-.66-.59-1.33-1.17-2-1.73-.34-.29-.69-.57-1-.84q-.81-.66-1.65-1.29c-.39-.3-.79-.59-1.19-.88a73.1,73.1,0,0,0-14.64-8.2l-1.28-.52c-.86-.33-1.72-.66-2.59-1-.27-.1-.53-.19-.8-.27l-1.08-.36-1.51-.46c-.46-.14-.92-.28-1.38-.39s-.73-.21-1.11-.3l-1.27-.32-1.28-.29c-.44-.1-.9-.2-1.35-.28s-.61-.13-.91-.18c-.7-.13-1.41-.25-2.11-.35-.5-.09-1-.16-1.51-.23l-1.62-.2-1.51-.15h-.14l-1.59-.13c-.54,0-1.09-.06-1.64-.09-1.1,0-2.19-.07-3.31-.07s-2.21,0-3.3.07c-.55,0-1.1.05-1.64.09l-1.59.13h-.14l-1.52.15-1.61.2c-.5.07-1,.14-1.51.23-.71.1-1.41.22-2.11.35-.31,0-.61.11-.91.18s-.91.18-1.36.28l-1.27.29-1.28.32c-.37.09-.74.19-1.1.3s-.92.25-1.38.39l-1.51.46c-.36.11-.73.23-1.08.36s-.53.17-.8.27c-.87.3-1.74.63-2.59,1l-1.28.52a72.55,72.55,0,0,0-14.64,8.2c-.4.29-.8.58-1.19.88-.57.42-1.12.85-1.66,1.29-.34.27-.69.55-1,.84-.68.56-1.36,1.14-2,1.73l-.93.83-.06.07-1,.91c-.39.37-.76.74-1.13,1.11l-1,1.05-.66.71c-.27.29-.55.58-.81.88-.58.64-1.15,1.3-1.7,2-.25.29-.49.59-.73.88q-1.41,1.74-2.69,3.52c-.57.81-1.13,1.62-1.68,2.45s-1.06,1.66-1.58,2.51l-.74,1.27c-.49.87-1,1.74-1.43,2.62l-.68,1.33-.69,1.44q-.6,1.3-1.17,2.64c-.57,1.38-1.11,2.78-1.61,4.2l-.48,1.43c-.31,1-.6,1.93-.87,2.9-.13.49-.27,1-.39,1.47H320.49a53,53,0,0,1-3.48-6.66c-.13-.3-.27-.61-.39-.92a64.76,64.76,0,0,1-2.63-7.55c-.06-.2-.12-.39-.17-.59a85,85,0,0,1-2-9.18c-.07-.42-.13-.84-.2-1.27-.18-1.24-.36-2.53-.5-3.87-.05-.39-.09-.79-.13-1.19s-.1-1-.14-1.49c-.11-1.25-.2-2.52-.28-3.83,0-.56-.05-1.11-.07-1.68s-.05-1.23-.07-1.86c0-.41,0-.84,0-1.26s0-.83,0-1.25,0-.9,0-1.36,0-1.2,0-1.81c0-.24,0-.47,0-.71s0-.33,0-.48c0-.47,0-.94,0-1.42s0-1.16.05-1.75c.05-1,.1-2,.16-3.06,0-.55.07-1.1.11-1.66s.08-1.12.13-1.68.09-1.21.14-1.81.11-1.23.17-1.84c0,0,0-.09,0-.13.14-1.49.31-3,.5-4.56.07-.56.15-1.12.22-1.71l.07-.57c.3-2.16.63-4.38,1-6.66.15-.93.31-1.87.47-2.82s.36-2,.55-3c.27-1.39.55-2.81.85-4.25a376.51,376.51,0,0,1,15.85-53.9q1.41-3.86,2.95-7.84,1.89-4.86,4-9.91s1.56-.68,4.54-1.9c1.13-.47,2.48-1,4-1.63a806.56,806.56,0,0,1,95.88-30.79c49.26-12.63,111.48-23.9,176.56-23.9h0c3,0,5.94,0,8.93.07,2.65,0,5.32.11,8,.2l-.05-.2,2-.49,2-.49.32,1.33c1,0,2,.07,3,.12l2.95.13,4.43.24,4.19.27.25,0,3.85.27,5,.41c3,.25,6,.55,9,.86q9,.94,18,2.25c162.49,23.59,349.5,110.93,375.21,126.67a11.11,11.11,0,0,1,3,2.19c.18.36.42.87.73,1.51,1.84,3.8,5.81,12.22,9.85,20.82,2.47,5.27,5,10.63,7,15,2.8,6,4.8,10.26,4.8,10.26v32.27h-66.72C1024.36,672,1024.22,671.54,1024.09,671.05Zm67.11,5.62v5.6h-63.08v-5.6Zm4.15,9.75h0c0,.29,0,.57,0,.84l0,.34-.06.41c0,.27-.07.52-.12.78s-.1.52-.17.77-.12.49-.2.74-.11.38-.17.57-.23.65-.36,1a.14.14,0,0,0,0,.06h0a1.75,1.75,0,0,0-.11.24,2.92,2.92,0,0,1-.14.31,7.18,7.18,0,0,1-.34.68,5.12,5.12,0,0,1-.27.52c-.07.12-.14.26-.22.38a5.6,5.6,0,0,1-.3.48q-.18.29-.39.57t-.54.72c-.11.15-.24.3-.36.44s-.23.27-.35.39a6.14,6.14,0,0,1-.5.52,5.09,5.09,0,0,1-.41.4,2.09,2.09,0,0,1-.22.2l-.47.41-.09.07c-.13.11-.26.22-.4.32h0c-.24.18-.48.36-.74.53l-.07.06-.63.39c-.16.1-.31.19-.47.27s0,0-.08,0l-.12.08-.17.08-.06,0-.11.07-.31.16-.19.08-.35.16a1.94,1.94,0,0,1-.36.15l-.1.05c-.16.07-.32.12-.49.18a5.84,5.84,0,0,1-.59.2,5.26,5.26,0,0,1-.6.18,2.29,2.29,0,0,1-.28.08l-.26.07-.08,0-.14,0-.25,0-.24.05h-.06a5.4,5.4,0,0,1-.58.11l-.2,0h0c-.2,0-.41.06-.61.08l-.25,0a12.16,12.16,0,0,1-1.36.06h-51.13V686.42h67.21c0-.21,0-.42,0-.64Z"/><circle class="cls-6" cx="446.91" cy="685.3" r="54.09"/><path class="cls-13" d="M505,684.51a58.1,58.1,0,0,0-116.18,0c0,.27,0,.53,0,.8,0,1.08,0,2.14.09,3.21a58.18,58.18,0,0,0,33.74,49.57,56.79,56.79,0,0,0,12,4,58.12,58.12,0,0,0,24.54,0,56.79,56.79,0,0,0,12-4,58.18,58.18,0,0,0,33.74-49.57c.06-1.07.09-2.13.09-3.21C505,685,505,684.78,505,684.51Zm-4.28,6.28c0,.3-.06.6-.1.9l0,.29c0,.35-.09.7-.14,1.06s-.13.85-.21,1.28-.1.62-.16.93-.13.73-.21,1.1c-.15.73-.31,1.45-.5,2.16-.09.36-.18.72-.28,1.08s-.24.86-.37,1.29c-.18.63-.38,1.25-.59,1.86s-.49,1.38-.76,2.06c-.15.41-.31.81-.48,1.21s-.21.52-.33.77c-.49,1.16-1,2.29-1.61,3.39-.14.29-.29.57-.44.84s-.27.5-.42.75-.32.58-.49.86q-1.12,1.92-2.4,3.75l-.49.68-.92,1.23c-.15.2-.29.38-.44.56-.77,1-1.57,1.92-2.4,2.83q-.39.44-.78.84l-.43.46-.68.68c-.33.33-.66.66-1,1l-.75.69-.59.53-.72.63c-.42.36-.86.72-1.3,1.07l-.46.36c-.38.3-.76.6-1.15.88s-.57.42-.86.62l-.68.48-.8.54q-1.35.9-2.76,1.71c-.3.18-.63.36-.94.53s-.63.34-1,.51l-1,.5-1,.48-1,.46-1.9.81-.19.08c-.65.26-1.3.5-2,.74s-1.38.49-2.09.7l-1.06.32-1.05.29-1.08.27-1.08.26c-.45.11-.91.2-1.36.29l-.2,0-1.11.2-1,.17-1,.14-.59.08c-.32,0-.65.08-1,.1l-.09,0-1.3.11-1.38.09c-.42,0-.85,0-1.26,0l-1.53,0c-.51,0-1,0-1.52,0s-.84,0-1.26,0l-1.38-.09-1.31-.11h-.09l-1-.12-.47-.06c-.38-.05-.78-.1-1.16-.17l-1-.16-1-.18-.28-.06-1.28-.26-.06,0h0l-1-.25-1.08-.27-1.06-.29-1-.32c-.7-.22-1.4-.45-2.09-.7-.34-.12-.68-.24-1-.38l-.93-.36-.19-.08c-.64-.26-1.27-.53-1.9-.81l-1-.46-1-.48-1-.5c-.31-.17-.63-.33-.94-.51-1.27-.7-2.51-1.44-3.7-2.24-.27-.17-.54-.36-.8-.54l-.68-.48c-.29-.2-.58-.4-.86-.62a53.45,53.45,0,0,1-4.2-3.45c-.32-.29-.64-.58-1-.88s-.67-.64-1-1-.57-.57-.85-.87-.59-.62-.88-1c-.83-.91-1.64-1.86-2.4-2.83-.15-.18-.29-.36-.44-.56l-.92-1.23-.49-.68q-1.28-1.83-2.41-3.75l-.48-.86c-.15-.25-.29-.49-.42-.75s-.3-.55-.44-.84c-.58-1.1-1.12-2.23-1.61-3.39-.12-.25-.23-.51-.33-.77s-.33-.8-.48-1.21c-.28-.68-.53-1.37-.76-2.06s-.41-1.23-.59-1.86c-.13-.43-.26-.86-.37-1.29s-.19-.72-.28-1.08c-.19-.71-.35-1.43-.5-2.16-.08-.37-.14-.73-.22-1.1s-.11-.62-.16-.93-.14-.86-.2-1.28-.1-.71-.14-1.06l0-.29c0-.3-.07-.6-.1-.9-.08-.75-.14-1.51-.18-2.27,0-.06,0-.13,0-.19,0-.39,0-.79-.06-1.18,0-.09,0-.18,0-.26,0-.53,0-1.06,0-1.58,0-.27,0-.53,0-.8v-.06c0-.44,0-.88,0-1.32,0-.29,0-.58,0-.86s0-.65.06-1,0-.66.08-1,.08-.78.12-1.16a.78.78,0,0,1,0-.16c0-.34.08-.68.13-1s.08-.58.12-.86a.25.25,0,0,0,0-.08c.05-.35.11-.68.16-1s.1-.55.16-.82c0-.1,0-.2.05-.3.05-.26.1-.52.16-.77s.12-.61.2-.9.12-.56.2-.84.2-.81.3-1.2l0-.06c.1-.37.21-.75.32-1.13,0-.08.05-.16.07-.24.08-.29.17-.57.26-.86s.11-.33.16-.5l.35-1c.12-.35.25-.71.38-1.06l.33-.86c.16-.39.31-.78.48-1.16,0,0,0-.07,0-.11.17-.39.33-.77.51-1.16s.32-.7.49-1l.12-.26c.14-.28.27-.56.42-.83.32-.65.66-1.28,1-1.92.19-.35.38-.7.59-1s.43-.74.66-1.1h0c.22-.36.44-.71.67-1.06l.51-.76c.15-.22.3-.45.46-.67l.51-.72c.25-.36.51-.7.77-1l.63-.81c.21-.28.44-.55.66-.82s.32-.39.49-.58.44-.52.67-.78c.49-.55,1-1.1,1.5-1.63.25-.27.49-.53.75-.77.81-.82,1.65-1.62,2.52-2.39l.68-.59c1.32-1.14,2.7-2.21,4.12-3.21l1-.71q2.06-1.38,4.24-2.56c.22-.12.44-.24.67-.35l.69-.36c.38-.2.77-.39,1.16-.57A53,53,0,0,1,431,633.6l1.27-.37c.42-.12.85-.24,1.28-.34.85-.23,1.72-.42,2.59-.6.68-.13,1.34-.26,2-.36a5.43,5.43,0,0,1,.56-.09c.45-.07.9-.14,1.34-.19l1.41-.17c.81-.08,1.61-.14,2.43-.18,1-.06,2-.09,3.05-.09s2,0,3.06.09c.83,0,1.65.1,2.47.19.45,0,.91.1,1.36.16s.9.12,1.35.19a5.25,5.25,0,0,1,.55.09c.68.1,1.36.23,2,.36.87.18,1.74.37,2.59.6.44.1.86.22,1.29.34a53.77,53.77,0,0,1,8.57,3.23l1.17.57.52.28c.28.13.56.28.83.43.5.27,1,.55,1.5.85.26.14.51.3.77.46.66.4,1.32.82,2,1.25l1,.71c.9.64,1.78,1.3,2.64,2,.23.19.48.37.71.57l.77.65.68.59c.87.77,1.71,1.57,2.53,2.39l.74.77c.52.53,1,1.08,1.5,1.63.23.26.45.51.67.78s.66.79,1,1.19.54.68.8,1,.52.68.77,1l.51.72.46.67.51.76c.23.35.45.7.67,1.06h0c.23.36.45.73.67,1.1s.4.69.59,1,.53,1,.77,1.42.33.64.48,1,.39.78.57,1.18l.49,1.08a.87.87,0,0,1,.07.17c.16.35.3.7.45,1.06s.39,1,.57,1.47l.39,1.06.42,1.24c.12.4.24.79.37,1.18,0,.07,0,.13.05.19.11.38.22.76.32,1.13l0,.06c.1.39.21.79.3,1.2a.94.94,0,0,1,0,.16c.1.41.19.8.28,1.2s.17.8.24,1.21a1.49,1.49,0,0,1,0,.18c.08.41.16.82.22,1.24s.11.67.16,1,.06.39.08.6.09.66.13,1a.78.78,0,0,1,0,.16l.12,1.16c0,.07,0,.15,0,.21,0,.4.07.8.1,1.2a.41.41,0,0,1,0,.11c0,.44.05.87.07,1.31s0,.88,0,1.32v.06c0,.27,0,.53,0,.8,0,.52,0,1.05,0,1.58v.26l-.06,1.18c0,.06,0,.13,0,.19C500.85,689.28,500.8,690,500.72,690.79Z"/><circle class="cls-14" cx="446.91" cy="685.3" r="37.81"/><circle class="cls-6" cx="956.81" cy="685.3" r="54.09"/><path class="cls-13" d="M1014.9,684.51a58.1,58.1,0,0,0-116.18,0c0,.27,0,.53,0,.8,0,1.08,0,2.14.09,3.21a58.16,58.16,0,0,0,33.74,49.57,56.9,56.9,0,0,0,12,4,58.16,58.16,0,0,0,24.55,0,56.79,56.79,0,0,0,12-4,58.2,58.2,0,0,0,33.74-49.57c0-1.07.09-2.13.09-3.21C1014.91,685,1014.91,684.78,1014.9,684.51Zm-4.28,6.28c0,.3-.06.6-.1.9l0,.29c0,.35-.09.7-.15,1.06s-.13.85-.2,1.28-.1.62-.16.93-.13.73-.21,1.1c-.16.73-.32,1.45-.5,2.16-.09.36-.19.72-.28,1.08s-.24.86-.37,1.29c-.19.63-.39,1.25-.59,1.86s-.49,1.38-.76,2.06c-.15.41-.31.81-.48,1.21s-.22.52-.33.77c-.5,1.16-1,2.29-1.61,3.39-.15.29-.29.57-.44.84s-.27.5-.42.75-.32.58-.49.86q-1.12,1.92-2.4,3.75l-.49.68c-.31.41-.61.82-.93,1.23a6,6,0,0,1-.44.56c-.77,1-1.56,1.92-2.39,2.83q-.39.44-.78.84l-.44.46-.68.68c-.33.33-.65.66-1,1l-.75.69-.6.53-.71.63c-.43.36-.86.72-1.3,1.07l-.46.36c-.38.3-.77.6-1.15.88s-.57.42-.86.62l-.68.48-.8.54q-1.35.9-2.76,1.71l-.94.53c-.31.18-.63.34-1,.51l-1,.5-1,.48-1,.46-1.9.81-.19.08c-.65.26-1.31.5-2,.74s-1.38.49-2.09.7l-1.06.32-1.06.29c-.36.1-.71.19-1.07.27l-1.08.26c-.45.11-.91.2-1.37.29l-.19,0-1.11.2-1,.17-1,.14-.59.08c-.32,0-.65.08-1,.1l-.09,0-1.31.11c-.45,0-.92.06-1.38.09s-.84,0-1.26,0-1,0-1.52,0-1,0-1.52,0-.84,0-1.26,0l-1.38-.09-1.32-.11h-.08l-1-.12-.47-.06c-.39-.05-.78-.1-1.17-.17l-1-.16-1-.18a2.3,2.3,0,0,1-.28-.06l-1.29-.26,0,0h0l-1-.25c-.37-.08-.72-.17-1.08-.27l-1.06-.29-1.06-.32c-.69-.22-1.39-.45-2.08-.7-.35-.12-.68-.24-1-.38l-.94-.36-.18-.08c-.64-.26-1.28-.53-1.9-.81l-1-.46-1-.48c-.33-.16-.65-.33-1-.5l-1-.51c-1.26-.7-2.5-1.44-3.69-2.24-.28-.17-.54-.36-.8-.54l-.69-.48c-.28-.2-.57-.4-.85-.62a53.61,53.61,0,0,1-4.21-3.45l-.94-.88-1-1c-.29-.29-.57-.57-.84-.87s-.59-.62-.88-1c-.84-.91-1.64-1.86-2.4-2.83-.15-.18-.3-.36-.44-.56l-.92-1.23-.49-.68q-1.28-1.83-2.41-3.75c-.17-.28-.33-.57-.49-.86s-.28-.49-.41-.75-.3-.55-.45-.84c-.57-1.1-1.11-2.23-1.61-3.39l-.33-.77-.48-1.21c-.27-.68-.52-1.37-.75-2.06s-.41-1.23-.59-1.86c-.13-.43-.26-.86-.37-1.29s-.2-.72-.28-1.08c-.19-.71-.35-1.43-.5-2.16-.08-.37-.15-.73-.22-1.1s-.11-.62-.16-.93-.14-.86-.2-1.28-.1-.71-.14-1.06c0-.1,0-.19,0-.29q-.06-.45-.09-.9c-.08-.75-.14-1.51-.19-2.27v-.19c0-.39,0-.79-.06-1.18,0-.09,0-.18,0-.26,0-.53,0-1.06,0-1.58,0-.27,0-.53,0-.8v-.06c0-.44,0-.88,0-1.32,0-.29,0-.58,0-.86s0-.65.06-1,0-.66.08-1,.07-.78.12-1.16a.78.78,0,0,1,0-.16c0-.34.08-.68.13-1s.08-.58.12-.86a.19.19,0,0,1,0-.08c0-.35.11-.68.16-1l.15-.82.06-.3.15-.77c.07-.3.13-.61.2-.9s.13-.56.2-.84.2-.81.31-1.2a.11.11,0,0,0,0-.06c.11-.37.21-.75.33-1.13a2.17,2.17,0,0,1,.07-.24c.08-.29.17-.57.26-.86s.11-.33.16-.5c.11-.34.23-.67.35-1s.25-.71.38-1.06l.33-.86c.15-.39.31-.78.47-1.16a.37.37,0,0,0,0-.11c.16-.39.33-.77.51-1.16s.32-.7.49-1l.12-.26c.13-.28.27-.56.41-.83.32-.65.67-1.28,1-1.92.2-.35.39-.7.6-1s.43-.74.66-1.1h0c.22-.36.44-.71.67-1.06s.33-.5.51-.76.3-.45.46-.67.33-.48.51-.72.5-.7.77-1l.62-.81c.22-.28.45-.55.67-.82s.32-.39.49-.58.44-.52.67-.78c.48-.55,1-1.1,1.49-1.63.25-.27.5-.53.76-.77.81-.82,1.65-1.62,2.52-2.39l.68-.59a51.1,51.1,0,0,1,4.12-3.21l1-.71q2.06-1.38,4.24-2.56l.66-.35.69-.36c.39-.2.77-.39,1.17-.57a52.53,52.53,0,0,1,7.31-2.86l1.27-.37c.42-.12.85-.24,1.28-.34.85-.23,1.72-.42,2.59-.6.67-.13,1.34-.26,2-.36l.55-.09c.45-.07.9-.14,1.35-.19l1.41-.17c.81-.08,1.61-.14,2.43-.18,1-.06,2-.09,3-.09s2.05,0,3.06.09c.82,0,1.65.1,2.47.19.45,0,.9.1,1.36.16s.9.12,1.35.19a5.25,5.25,0,0,1,.55.09c.68.1,1.36.23,2,.36.87.18,1.73.37,2.59.6.44.1.86.22,1.29.34a54.14,54.14,0,0,1,8.57,3.23l1.17.57.52.28c.28.13.55.28.83.43.5.27,1,.55,1.5.85l.77.46c.66.4,1.32.82,2,1.25.34.24.7.47,1,.71.91.64,1.79,1.3,2.65,2l.71.57.77.65.68.59c.87.77,1.71,1.57,2.52,2.39.25.24.5.5.75.77.51.53,1,1.08,1.5,1.63.22.26.45.51.66.78s.67.79,1,1.19l.8,1c.26.34.52.68.76,1l.52.72.46.67.51.76c.22.35.45.7.66,1.06h0c.23.36.45.73.67,1.1s.4.69.59,1,.52,1,.77,1.42.33.64.48,1,.39.78.56,1.18.34.72.49,1.08a.53.53,0,0,1,.08.17c.16.35.3.7.44,1.06s.4,1,.58,1.47l.39,1.06c.14.41.28.83.41,1.24s.25.79.37,1.18l.06.19c.11.38.22.76.32,1.13l0,.06.3,1.2a.94.94,0,0,1,0,.16c.1.41.18.8.27,1.2s.18.8.25,1.21a1.49,1.49,0,0,1,0,.18c.07.41.15.82.22,1.24s.11.67.16,1,0,.39.08.6.09.66.13,1a.81.81,0,0,1,0,.16c.05.38.09.78.12,1.16a1.65,1.65,0,0,1,0,.21c0,.4.07.8.1,1.2v.11c0,.44.05.87.07,1.31s0,.88,0,1.32v.06c0,.27,0,.53,0,.8,0,.52,0,1.05,0,1.58,0,.08,0,.17,0,.26,0,.39,0,.79-.05,1.18,0,.06,0,.13,0,.19C1010.75,689.28,1010.7,690,1010.62,690.79Z"/><circle class="cls-14" cx="956.81" cy="685.3" r="37.81"/><rect class="cls-6" x="323.71" y="740.78" width="763.16" height="4.15"/><path class="cls-4" d="M245.41,719.08H122.74V475.31a8.57,8.57,0,0,1,8.56-8.57l105.55,19.5a8.57,8.57,0,0,1,8.56,8.57Z"/><path class="cls-4" d="M115.4,719.08H252.75a9.92,9.92,0,0,1,9.92,9.92v11.3a0,0,0,0,1,0,0H105.48a0,0,0,0,1,0,0V729A9.92,9.92,0,0,1,115.4,719.08Z"/><path class="cls-15" d="M252.75,714.09h-2.36V494.81a13.56,13.56,0,0,0-13-13.54L132.21,461.84l-.45-.08h-.46a13.56,13.56,0,0,0-13.55,13.55V714.09H115.4A14.92,14.92,0,0,0,100.5,729v16.28H267.65V729A14.92,14.92,0,0,0,252.75,714.09Zm-130-238.78a8.57,8.57,0,0,1,8.57-8.57l105.55,19.51a8.56,8.56,0,0,1,8.56,8.56V714.09H122.73Zm139.94,265H105.48V729a9.92,9.92,0,0,1,9.92-9.92H252.75a9.92,9.92,0,0,1,9.92,9.92Z"/><path class="cls-11" d="M224.55,587.4h-81a10.86,10.86,0,0,1-10.86-10.86V484.82a4.79,4.79,0,0,1,5.68-4.7l92,17.47a6.16,6.16,0,0,1,5,6.06v72.89A10.86,10.86,0,0,1,224.55,587.4Z"/><polygon class="cls-16" points="176.13 513.99 206.11 513.99 182.85 537.56 198.05 537.56 165.56 570.05 177.17 542.02 162.03 542.02 176.13 513.99"/><rect class="cls-17" x="132.74" y="595.45" width="102.67" height="28.92" rx="7.9"/><rect class="cls-16" x="145.57" y="606.04" width="38.26" height="7.75" rx="2.43"/><rect class="cls-16" x="188.87" y="606.04" width="29.46" height="7.75" rx="2.13"/><rect class="cls-16" x="167.81" y="636.62" width="32.83" height="32.83" rx="9"/><path class="cls-10" d="M323.71,745.37H229.8a48,48,0,0,1-48.09-47.83V655.32h5v42.22a43,43,0,0,0,43.05,42.8h93.91a43,43,0,0,0,43.06-42.8V538.63h5V697.54A48,48,0,0,1,323.71,745.37Z"/><rect class="cls-13" x="364.51" y="534.1" width="9.55" height="25.78"/><rect class="cls-13" x="360.29" y="529.01" width="17.99" height="17.99" rx="4.41"/><rect class="cls-10" x="175.08" y="644.69" width="17.99" height="17.99" rx="4.41"/><path class="cls-16" d="M371,555.52v-5.81h-3.33v5.81ZM369,554.14v-.83c0-.39-.56-.27-.56-1.66h.28v-.42a.14.14,0,0,1,.28,0v.42h.55v-.42a.14.14,0,0,1,.28,0v.42h.27c0,1.38-.55,1.28-.55,1.66v.83Zm-.21-5.26h1a.34.34,0,0,1,.34.34v.21h-1.66v-.21A.35.35,0,0,1,368.8,548.88Z"/><rect class="cls-16" x="367.62" y="542.59" width="3.32" height="0.5"/><rect class="cls-18" x="367.62" y="539.23" width="3.32" height="0.5"/><rect class="cls-19" x="367.62" y="535.87" width="3.32" height="0.5"/><rect class="cls-20" x="367.62" y="532.5" width="3.32" height="0.5"/><path class="cls-16" d="M187.92,651.64h-7.15v4.09h7.15Zm-1.7,2.38h-1c-.48,0-.33.69-2,.69v-.35h-.51a.17.17,0,0,1-.17-.17.18.18,0,0,1,.17-.17h.51v-.68h-.51a.17.17,0,0,1-.17-.17.18.18,0,0,1,.17-.17h.51v-.34c1.7,0,1.58.68,2,.68h1Zm-6.48.26v-1.19a.43.43,0,0,1,.43-.43h.25v2.05h-.25A.43.43,0,0,1,179.74,654.28Z"/><path class="cls-21" d="M1095.35,672.52V639.33l-.39-.83-3.92-8.4c-2.21-4.72-5.08-10.87-7.92-16.9-1.3-2.78-4.51-9.61-7.12-15.12-1.55-3.25-2.89-6.05-3.5-7.3v0c-.61-1.19-1.7-2.12-4.47-3.83-13-7.92-66.4-33.85-137-60.73-61.41-23.37-152.85-53.89-239.77-66.51a507.6,507.6,0,0,0-72.56-5c-64.33,0-125.87,10.94-175,23.37a815,815,0,0,0-98.94,31.61c-5.58,2.22-8.57,3.53-8.69,3.58l-1.55.68-.59,1.43-.05.13q-3.17,7.8-6,15.34l0,0a1.69,1.69,0,0,1-.1.27c-1,2.62-1.92,5.22-2.83,7.78l-.11.29A365.06,365.06,0,0,0,310.19,591c-.07.38-.14.76-.22,1.13-.24,1.26-.46,2.52-.68,3.76-.3,1.71-.57,3.42-.82,5.09s-.49,3.33-.7,5q-.39,3.09-.69,6.09c-.13,1.35-.25,2.68-.35,4h0c-.17,2.12-.29,4.21-.38,6.27h0c-.05,1.25-.08,2.5-.1,3.73q-.06,3.21,0,6.3.14,5.26.65,10.14.51,4.66,1.36,9c2.64,13.36,7.38,21.9,11.21,26.95v12.66l3.1.81,43.75,11.51a43,43,0,0,1-42.64,36.94H267.65V729a14.92,14.92,0,0,0-14.9-14.9h-2.36V494.81a13.56,13.56,0,0,0-13-13.54L132.21,461.84l-.45-.08h-.46a13.56,13.56,0,0,0-13.55,13.55V714.09H115.4A14.92,14.92,0,0,0,100.5,729v16.28H226.83c1,.06,2,.1,3,.1h93.91a48.67,48.67,0,0,0,6.43-.44h756.73v-4.15H974a57.4,57.4,0,0,0,7-2.69A58.25,58.25,0,0,0,1014.25,694H1024v12h55.28a20.28,20.28,0,0,0,20.25-20.26V672.52Zm-751.1,68.26a48,48,0,0,0,27-36.09l4.56,1.2,5.22,1.37V694h8.43a58.23,58.23,0,0,0,33.17,44.08,56.78,56.78,0,0,0,7,2.69Zm119.89,0a56.78,56.78,0,0,0,7-2.69A58.23,58.23,0,0,0,504.35,694h8.44v12H888.06V694h11.31a58.23,58.23,0,0,0,33.17,44.08,56.18,56.18,0,0,0,7,2.69Z"/><rect class="cls-7" width="1200" height="1200"/></g></g></svg>